<?xml version="1.0" standalone="no"?>
<!DOCTYPE svg PUBLIC "-//W3C//DTD SVG 20010904//EN"
 "http://www.w3.org/TR/2001/REC-SVG-20010904/DTD/svg10.dtd">
<svg version="1.0" xmlns="http://www.w3.org/2000/svg"
 width="225.000000pt" height="225.000000pt" viewBox="0 0 225.000000 225.000000"
 preserveAspectRatio="xMidYMid meet">

<g transform="translate(0.000000,225.000000) scale(0.100000,-0.100000)"
fill="#000000" stroke="none">
<path d="M1015 2099 c-206 -20 -436 -130 -584 -279 -138 -140 -228 -303 -268
-490 -26 -123 -24 -356 5 -463 27 -100 65 -186 116 -262 179 -269 377 -397
681 -440 185 -27 333 -16 493 37 162 54 301 155 407 297 146 196 224 422 225
649 0 171 -39 310 -131 464 -133 224 -433 391 -730 405 -122 6 -278 -11 -291
-31 -5 -6 -6 -23 -3 -37 6 -24 2 -26 -47 -37 -29 -7 -77 -24 -107 -37 -30 -14
-55 -24 -57 -22 -2 2 -6 28 -10 59 l-7 56 49 22 c53 23 178 55 259 65 28 4 65
14 84 22 20 9 47 13 67 10 19 -3 36 -2 39 2 4 8 -73 23 -99 20 -6 -1 -47 -5
-91 -10z m290 -139 c167 -33 328 -109 432 -204 30 -27 52 -50 50 -52 -9 -9
-150 55 -212 97 -127 86 -291 138 -435 139 -55 0 -82 5 -100 17 l-24 17 23 6
c39 9 171 -1 266 -20z m-626 -95 c1 -38 -3 -44 -50 -79 -28 -21 -48 -40 -45
-43 3 -3 11 -1 19 5 7 6 25 9 40 8 15 -2 27 1 27 7 0 26 14 -8 20 -49 l7 -46
-56 -26 c-55 -25 -158 -85 -214 -124 -15 -10 -32 -16 -38 -12 -6 3 -13 -3 -16
-15 -10 -41 -20 -20 -27 56 -6 71 -4 80 19 115 40 60 162 184 234 238 64 48
66 49 73 27 3 -12 6 -40 7 -62z m295 -75 c37 -14 32 -27 -11 -35 -32 -6 -169
-46 -209 -62 -8 -3 -13 10 -16 36 -2 22 -2 38 -1 37 2 -2 40 5 86 14 99 22
118 23 151 10z m629 -98 c47 -42 207 -316 193 -330 -3 -2 -13 1 -23 7 -21 11
-206 46 -294 56 l-55 6 -39 79 -38 79 25 38 c14 21 38 51 54 67 28 27 32 28
94 22 39 -4 72 -14 83 -24z m-552 -1 c-11 -7 -9 -10 7 -15 11 -4 48 -34 82
-67 34 -33 65 -58 68 -55 3 3 10 -1 16 -10 9 -12 17 -13 37 -5 24 9 27 6 52
-45 15 -30 27 -58 27 -62 0 -4 -17 -9 -37 -10 -103 -7 -318 -63 -444 -116 -13
-6 -22 13 -47 96 -47 155 -57 209 -41 219 31 20 223 74 274 77 15 1 17 0 6 -7z
m733 -41 c82 -34 115 -71 165 -183 44 -97 62 -182 68 -318 6 -139 -8 -233 -54
-369 -38 -112 -43 -115 -36 -15 5 74 10 93 26 104 20 14 20 14 0 31 -19 15
-20 27 -19 173 1 100 -3 156 -9 154 -5 -1 -9 -5 -7 -9 1 -5 -2 -8 -8 -8 -5 0
-10 5 -10 11 0 19 25 36 48 33 29 -5 29 19 -1 35 -13 7 -28 22 -33 34 -6 12
-9 16 -7 10 1 -7 -2 -13 -7 -13 -11 0 -50 49 -50 64 0 20 -70 158 -109 216
-52 77 -54 80 -41 80 6 0 44 -14 84 -30z m-1064 -117 c6 -32 22 -98 36 -148
13 -49 24 -95 24 -102 0 -6 -32 -28 -71 -48 -39 -20 -88 -47 -110 -60 -21 -14
-41 -25 -44 -25 -4 0 -21 -11 -38 -24 -18 -13 -42 -29 -54 -35 -20 -10 -22 -9
-16 5 4 11 2 15 -4 11 -13 -8 -37 79 -27 95 4 6 3 8 -3 5 -9 -6 -43 119 -43
159 0 16 34 47 115 106 58 41 194 117 212 118 6 0 17 -26 23 -57z m-466 -174
c-20 -27 -38 -48 -40 -46 -6 6 25 116 49 170 l22 52 3 -63 c3 -59 1 -66 -34
-113z m1439 -35 c118 -29 132 -37 147 -87 14 -53 16 -85 6 -112 -6 -14 -5 -16
2 -7 7 11 10 10 16 -3 8 -21 8 -90 0 -82 -3 3 -30 -8 -60 -24 -53 -30 -54 -30
-45 -7 8 22 7 23 -33 19 -22 -2 -44 -8 -47 -14 -5 -6 -26 -5 -65 4 l-57 14
-37 125 c-20 69 -42 138 -49 153 -21 52 -18 53 70 46 44 -4 112 -15 152 -25z
m-263 -129 c27 -86 50 -160 50 -165 0 -6 -24 -10 -52 -10 -43 0 -57 5 -77 25
-27 29 -95 36 -105 10 -3 -8 0 -15 7 -16 9 0 9 -2 -1 -6 -6 -2 -10 -8 -7 -12
2 -5 -35 -21 -83 -36 -47 -15 -106 -36 -129 -46 l-43 -18 -16 32 c-19 35 -104
257 -104 269 0 34 322 125 452 127 l57 1 51 -155z m-1095 -40 c12 -49 26 -98
30 -107 13 -32 -14 -19 -31 15 -9 17 -22 39 -29 47 -7 8 -16 26 -19 40 -2 14
-3 -23 -1 -83 1 -59 -1 -110 -6 -113 -16 -9 -10 -42 10 -56 11 -8 31 -44 45
-81 28 -76 65 -142 113 -206 21 -28 31 -51 27 -63 -4 -14 0 -18 16 -18 12 0
47 -22 78 -48 58 -50 145 -106 190 -123 17 -7 29 -6 41 3 14 10 14 10 3 -2
-11 -13 -7 -17 22 -30 l35 -15 -19 -25 -19 -25 -57 20 c-115 39 -254 140 -342
249 -97 119 -144 212 -183 364 -37 146 -47 381 -15 382 6 1 25 12 41 25 l30
25 9 -42 c4 -24 19 -83 31 -133z m484 4 c7 -23 32 -93 55 -155 l43 -114 -66
-36 c-36 -20 -94 -57 -129 -81 -34 -24 -67 -41 -74 -37 -6 4 -8 3 -5 -3 4 -6
0 -16 -9 -23 -12 -11 -17 -11 -27 0 -9 9 -9 11 0 6 6 -3 15 -2 18 4 4 6 3 10
-2 9 -23 -4 -33 7 -70 84 -45 91 -61 133 -45 123 5 -3 12 3 15 14 6 22 -8 28
-16 8 -4 -10 -8 -9 -16 2 -16 22 -13 40 4 34 10 -4 13 -2 10 7 -3 9 22 32 67
64 40 28 76 52 81 54 5 2 38 21 75 42 37 21 69 39 73 39 3 0 11 -19 18 -41z
m1098 19 c-3 -8 -6 -5 -6 6 -1 11 2 17 5 13 3 -3 4 -12 1 -19z m-172 -178 c-3
-5 -15 -10 -26 -10 -10 0 -19 5 -19 10 0 6 12 10 26 10 14 0 23 -4 19 -10z
m75 -20 c13 -8 13 -10 -2 -10 -9 0 -20 5 -23 10 -8 13 5 13 25 0z m-316 -67
c0 -13 2 -23 6 -23 9 0 33 -110 26 -117 -3 -4 -6 2 -6 13 0 10 -5 26 -11 34
-9 13 -10 13 -8 0 4 -25 -13 -90 -22 -90 -5 0 -9 1 -9 3 0 1 4 28 10 61 8 47
7 61 -5 73 -9 8 -13 19 -10 24 4 5 -3 9 -15 9 -12 0 -19 4 -15 9 3 6 -3 15
-12 20 -14 9 -9 11 27 9 40 -3 45 -6 44 -25z m130 11 c9 -3 13 -11 9 -16 -4
-7 3 -9 18 -5 13 3 35 8 49 11 22 6 22 5 -2 -5 -22 -8 -28 -17 -28 -40 0 -23
-4 -29 -22 -29 -35 0 -52 15 -45 40 4 16 2 20 -9 16 -9 -3 -14 1 -14 14 0 20
15 25 44 14z m76 -44 c0 -5 -5 -10 -11 -10 -5 0 -7 5 -4 10 3 6 8 10 11 10 2
0 4 -4 4 -10z m-595 -10 c-3 -5 -13 -10 -21 -10 -8 0 -13 -4 -10 -9 3 -5 -8
-11 -24 -13 -41 -6 -38 -1 13 22 49 23 50 23 42 10z m-676 -22 c5 -14 5 -28
-1 -35 -5 -7 -8 -20 -5 -30 4 -14 5 -13 6 5 2 34 21 26 21 -9 0 -16 4 -28 9
-24 12 7 30 -25 24 -42 -3 -7 2 -16 11 -19 9 -3 14 -10 11 -14 -6 -9 -55 32
-55 46 0 4 -12 18 -26 29 -25 20 -26 24 -15 58 7 20 10 41 6 47 -3 5 -4 10 0
10 3 0 9 -10 14 -22z m550 -98 l32 -60 -25 -55 c-14 -29 -26 -57 -26 -60 0
-20 -32 -30 -92 -30 -55 0 -70 -4 -83 -20 -14 -19 -15 -19 -5 8 5 15 7 27 5
27 -3 0 -8 0 -12 0 -5 0 -8 -4 -8 -9 0 -5 -4 -13 -9 -18 -5 -4 -6 -3 -3 3 3 6
-2 20 -13 31 -10 12 -16 24 -12 28 4 4 -2 5 -14 1 -16 -5 -20 -2 -19 13 1 11
8 28 15 38 14 17 14 17 -6 0 -11 -9 -25 -14 -29 -10 -5 5 -3 0 4 -9 7 -10 9
-18 3 -18 -5 0 -12 6 -15 14 -7 17 49 60 65 50 6 -4 8 -3 5 3 -9 14 29 47 43
38 6 -3 9 -2 8 4 -3 9 134 89 153 91 3 0 21 -27 38 -60z m634 40 c-3 -11 -7
-20 -9 -20 -2 0 -4 9 -4 20 0 11 4 20 9 20 5 0 7 -9 4 -20z m262 -175 c-3 -11
-14 -30 -24 -42 -18 -22 -20 -22 -68 -8 l-50 15 36 38 c20 21 52 70 71 109
l35 71 3 -82 c2 -44 0 -90 -3 -101z m-208 83 c-3 -7 -5 -2 -5 12 0 14 2 19 5
13 2 -7 2 -19 0 -25z m-21 -48 c8 0 14 -4 14 -9 0 -5 -9 -7 -20 -4 -11 3 -20
13 -19 22 0 10 2 11 6 4 2 -7 11 -13 19 -13z m-143 -17 c-7 -2 -19 -2 -25 0
-7 3 -2 5 12 5 14 0 19 -2 13 -5z m192 -3 c3 -5 1 -10 -4 -10 -6 0 -11 5 -11
10 0 6 2 10 4 10 3 0 8 -4 11 -10z m-158 -112 c-3 -8 -6 -5 -6 6 -1 11 2 17 5
13 3 -3 4 -12 1 -19z m257 1 c6 -5 0 -19 -15 -35 -26 -28 -152 -124 -163 -124
-3 0 -6 20 -6 45 0 41 4 50 48 90 43 41 50 44 87 38 22 -3 44 -9 49 -14z
m-943 -56 c13 -16 12 -17 -3 -4 -10 7 -18 15 -18 17 0 8 8 3 21 -13z m709 -97
l0 -43 -70 -32 c-39 -17 -74 -31 -78 -31 -15 0 -57 53 -46 57 6 2 48 23 95 47
46 24 87 44 92 45 4 0 7 -19 7 -43z m-795 24 c3 -6 -1 -7 -9 -4 -18 7 -21 14
-7 14 6 0 13 -4 16 -10z m548 -151 c-4 -4 -55 -11 -113 -14 l-105 -6 -45 30
-45 31 95 1 c52 0 113 4 135 8 35 7 43 5 63 -17 13 -13 20 -28 15 -33z m-323
-10 c0 -7 -100 8 -108 16 -3 2 3 14 12 24 18 19 18 19 57 -7 21 -15 38 -30 39
-33z"/>
<path d="M505 1679 c-11 -16 -1 -19 13 -3 7 8 8 14 3 14 -5 0 -13 -5 -16 -11z"/>
<path d="M454 1619 c-19 -22 -19 -22 4 -8 12 8 22 17 22 21 0 12 -6 9 -26 -13z"/>
<path d="M1190 1530 c-13 -8 -13 -10 2 -10 9 0 20 5 23 10 8 13 -5 13 -25 0z"/>
<path d="M432 1160 c0 -14 2 -19 5 -12 2 6 2 18 0 25 -3 6 -5 1 -5 -13z"/>
<path d="M1841 1064 c0 -11 3 -14 6 -6 3 7 2 16 -1 19 -3 4 -6 -2 -5 -13z"/>
<path d="M1798 1043 c7 -3 16 -2 19 1 4 3 -2 6 -13 5 -11 0 -14 -3 -6 -6z"/>
<path d="M546 965 c4 -8 8 -15 10 -15 2 0 4 7 4 15 0 8 -4 15 -10 15 -5 0 -7
-7 -4 -15z"/>
<path d="M470 730 c0 -5 5 -10 11 -10 5 0 7 5 4 10 -3 6 -8 10 -11 10 -2 0 -4
-4 -4 -10z"/>
</g>
</svg>
